<svg width="400" height="400" xmlns="http://www.w3.org/2000/svg">
  <defs>
    <linearGradient id="drumBg" x1="0%" y1="0%" x2="0%" y2="100%">
      <stop offset="0%" style="stop-color:#fef7ed"/>
      <stop offset="50%" style="stop-color:#fed7aa"/>
      <stop offset="100%" style="stop-color:#ea580c"/>
    </linearGradient>
  </defs>
  
  <!-- Background -->
  <rect width="400" height="400" fill="url(#drumBg)"/>
  
  <!-- Border -->
  <rect x="4" y="4" width="392" height="392" fill="none" stroke="#ea580c" stroke-width="8"/>
  
  <!-- PNG Flag Colors -->
  <rect x="50" y="50" width="300" height="20" fill="#CE1126"/>
  <rect x="50" y="80" width="300" height="15" fill="#FFCD00"/>
  <rect x="50" y="305" width="300" height="15" fill="#FFCD00"/>
  <rect x="50" y="330" width="300" height="20" fill="#CE1126"/>
  
  <!-- Kundu Drum Shape -->
  <ellipse cx="200" cy="140" rx="35" ry="8" fill="#8b4513"/>
  <rect x="165" y="140" width="70" height="60" fill="#a0522d"/>
  <ellipse cx="200" cy="200" rx="45" ry="12" fill="#8b4513"/>
  
  <!-- Drum Details -->
  <path d="M 175 145 L 225 145" stroke="#654321" stroke-width="2"/>
  <path d="M 175 155 L 225 155" stroke="#654321" stroke-width="2"/>
  <path d="M 175 165 L 225 165" stroke="#654321" stroke-width="2"/>
  <circle cx="190" cy="175" r="3" fill="#654321"/>
  <circle cx="210" cy="175" r="3" fill="#654321"/>
  
  <!-- Product Name -->
  <text x="200" y="240" font-family="Arial, sans-serif" font-size="22" font-weight="bold" text-anchor="middle" fill="#1e293b">Traditional</text>
  <text x="200" y="270" font-family="Arial, sans-serif" font-size="22" font-weight="bold" text-anchor="middle" fill="#1e293b">Kundu Drum</text>
  
  <!-- Subtitle -->
  <text x="200" y="295" font-family="Arial, sans-serif" font-size="16" text-anchor="middle" fill="#c2410c">CEREMONIAL INSTRUMENT</text>
</svg>