<svg viewBox="0 0 200 200" xmlns="http://www.w3.org/2000/svg">
  <defs>
    <linearGradient id="flourGradient" x1="0%" y1="0%" x2="100%" y2="100%">
      <stop offset="0%" style="stop-color:#FFFACD;stop-opacity:1" />
      <stop offset="50%" style="stop-color:#F5DEB3;stop-opacity:1" />
      <stop offset="100%" style="stop-color:#DEB887;stop-opacity:1" />
    </linearGradient>
    <linearGradient id="bagGradient" x1="0%" y1="0%" x2="100%" y2="100%">
      <stop offset="0%" style="stop-color:#F4E4BC;stop-opacity:1" />
      <stop offset="100%" style="stop-color:#DDD6C1;stop-opacity:1" />
    </linearGradient>
  </defs>
  
  <!-- Background -->
  <rect width="200" height="200" fill="#F0F8E8"/>
  
  <!-- Sago palm fronds in background -->
  <g transform="translate(20, 20)" opacity="0.3">
    <path d="M 0 40 Q 20 10 40 40 Q 30 50 20 60 Q 10 50 0 40" fill="#228B22"/>
    <path d="M 40 30 Q 60 0 80 30 Q 70 40 60 50 Q 50 40 40 30" fill="#32CD32"/>
  </g>
  
  <g transform="translate(120, 15)" opacity="0.3">
    <path d="M 0 35 Q 15 5 30 35 Q 25 45 15 55 Q 5 45 0 35" fill="#228B22"/>
    <path d="M 25 25 Q 40 -5 55 25 Q 50 35 40 45 Q 30 35 25 25" fill="#32CD32"/>
  </g>
  
  <!-- Flour bag -->
  <rect x="50" y="60" width="100" height="110" rx="8" fill="url(#bagGradient)" stroke="#C4B5A0" stroke-width="2"/>
  
  <!-- Bag top/opening -->
  <rect x="60" y="45" width="80" height="25" rx="4" fill="url(#bagGradient)" stroke="#C4B5A0" stroke-width="2"/>
  
  <!-- Flour spilling out -->
  <ellipse cx="85" cy="55" rx="8" ry="4" fill="url(#flourGradient)"/>
  <ellipse cx="105" cy="58" rx="6" ry="3" fill="url(#flourGradient)"/>
  <ellipse cx="115" cy="62" rx="5" ry="2.5" fill="url(#flourGradient)"/>
  
  <!-- Flour pile at bottom -->
  <ellipse cx="100" cy="180" rx="30" ry="8" fill="url(#flourGradient)" opacity="0.7"/>
  
  <!-- Flour texture inside bag -->
  <rect x="55" y="70" width="90" height="95" rx="6" fill="url(#flourGradient)" opacity="0.8"/>
  
  <!-- Sago flour particles -->
  <g opacity="0.6">
    <circle cx="70" cy="80" r="1" fill="#F5DEB3"/>
    <circle cx="130" cy="85" r="1.5" fill="#FFFACD"/>
    <circle cx="90" cy="95" r="1" fill="#DEB887"/>
    <circle cx="110" cy="100" r="1.2" fill="#F5DEB3"/>
    <circle cx="75" cy="120" r="1.3" fill="#FFFACD"/>
    <circle cx="125" cy="125" r="1" fill="#DEB887"/>
    <circle cx="85" cy="140" r="1.1" fill="#F5DEB3"/>
    <circle cx="115" cy="145" r="1.4" fill="#FFFACD"/>
  </g>
  
  <!-- Traditional label -->
  <rect x="65" y="90" width="70" height="30" rx="3" fill="#8B4513" opacity="0.8"/>
  <text x="100" y="105" font-family="Arial, sans-serif" font-size="8" font-weight="bold" text-anchor="middle" fill="#FFFACD">TRADITIONAL</text>
  <text x="100" y="115" font-family="Arial, sans-serif" font-size="8" font-weight="bold" text-anchor="middle" fill="#FFFACD">SAGO FLOUR</text>
  
  <!-- PNG traditional pattern -->
  <g transform="translate(55, 130)">
    <rect x="0" y="0" width="4" height="8" fill="#FFD700"/>
    <rect x="0" y="8" width="4" height="8" fill="#000000"/>
    <rect x="0" y="16" width="4" height="8" fill="#FF0000"/>
  </g>
  
  <g transform="translate(141, 130)">
    <rect x="0" y="0" width="4" height="8" fill="#FFD700"/>
    <rect x="0" y="8" width="4" height="8" fill="#000000"/>
    <rect x="0" y="16" width="4" height="8" fill="#FF0000"/>
  </g>
  
  <!-- Sago palm illustration -->
  <g transform="translate(160, 80)" opacity="0.4">
    <rect x="-2" y="0" width="4" height="40" fill="#8B4513"/>
    <path d="M -15 0 Q 0 -10 15 0 Q 0 10 -15 0" fill="#228B22"/>
    <path d="M -12 5 Q 0 -5 12 5 Q 0 15 -12 5" fill="#32CD32"/>
  </g>
  
  <!-- Label -->
  <text x="100" y="195" font-family="Arial, sans-serif" font-size="10" font-weight="bold" text-anchor="middle" fill="#8B4513">WESTERN PROVINCE SAGO</text>
</svg>