<svg width="100" height="100" viewBox="0 0 100 100" fill="none" xmlns="http://www.w3.org/2000/svg">
  <rect width="100" height="100" rx="8" fill="#F3F4F6"/>
  <rect x="25" y="30" width="50" height="40" rx="8" fill="#ECFCCB"/>
  <rect x="27" y="32" width="46" height="8" rx="3" fill="#22C55E"/>
  <text x="50" y="38" text-anchor="middle" fill="#ECFCCB" font-size="6" font-weight="bold">COCONUT</text>
  <text x="50" y="50" text-anchor="middle" fill="#15803D" font-size="8" font-weight="bold">NATURAL</text>
  <text x="50" y="58" text-anchor="middle" fill="#15803D" font-size="8" font-weight="bold">SOAP</text>
  <text x="50" y="66" text-anchor="middle" fill="#22C55E" font-size="5">BOUGAINVILLE</text>
  <circle cx="35" cy="25" r="3" fill="#FBBF24"/>
  <circle cx="50" cy="23" r="3" fill="#FBBF24"/>
  <circle cx="65" cy="25" r="3" fill="#FBBF24"/>
  <circle cx="30" cy="75" r="2" fill="#ECFCCB"/>
  <circle cx="40" cy="78" r="2" fill="#ECFCCB"/>
  <circle cx="50" cy="75" r="2" fill="#ECFCCB"/>
  <circle cx="60" cy="78" r="2" fill="#ECFCCB"/>
  <circle cx="70" cy="75" r="2" fill="#ECFCCB"/>
  <path d="M30 15C32 18 35 20 38 18C40 16 38 13 35 15C33 16 31 14 30 15Z" fill="#16A34A"/>
  <path d="M62 15C64 18 67 20 70 18C72 16 70 13 67 15C65 16 63 14 62 15Z" fill="#16A34A"/>
</svg>