<svg width="100" height="100" viewBox="0 0 100 100" fill="none" xmlns="http://www.w3.org/2000/svg">
  <rect width="100" height="100" rx="8" fill="#F3F4F6"/>
  <rect x="20" y="30" width="50" height="60" rx="4" fill="#92400E"/>
  <rect x="22" y="32" width="46" height="10" rx="2" fill="#F59E0B"/>
  <text x="45" y="40" text-anchor="middle" fill="#92400E" font-size="8" font-weight="bold">PNG</text>
  <text x="45" y="52" text-anchor="middle" fill="#F59E0B" font-size="6">HIGHLANDS</text>
  <text x="45" y="62" text-anchor="middle" fill="#F59E0B" font-size="6">COFFEE</text>
  <circle cx="30" cy="70" r="3" fill="#D97706"/>
  <circle cx="45" cy="75" r="3" fill="#D97706"/>
  <circle cx="60" cy="70" r="3" fill="#D97706"/>
  <circle cx="35" cy="80" r="2" fill="#B45309"/>
  <circle cx="55" cy="80" r="2" fill="#B45309"/>
  <path d="M25 20C25 18.9 25.9 18 27 18C28.1 18 29 18.9 29 20V25H25V20Z" fill="#D97706"/>
  <path d="M35 20C35 18.9 35.9 18 37 18C38.1 18 39 18.9 39 20V25H35V20Z" fill="#D97706"/>
  <path d="M45 20C45 18.9 45.9 18 47 18C48.1 18 49 18.9 49 20V25H45V20Z" fill="#D97706"/>
  <path d="M70 40V70C70 75.52 75.52 80 81 80H85C87.21 80 89 78.21 89 76V44C89 41.79 87.21 40 85 40H70Z" fill="#A16207"/>
</svg>