<svg width="100" height="100" viewBox="0 0 100 100" fill="none" xmlns="http://www.w3.org/2000/svg">
  <rect width="100" height="100" rx="8" fill="#F3F4F6"/>
  <path d="M35 25C35 23.9 35.9 23 37 23H63C64.1 23 65 23.9 65 25V30H35V25Z" fill="#92400E"/>
  <path d="M30 30H70C72.21 30 74 31.79 74 34V75C74 77.21 72.21 79 70 79H30C27.79 79 26 77.21 26 75V34C26 31.79 27.79 30 30 30Z" fill="#FBBF24"/>
  <rect x="40" y="20" width="20" height="8" rx="4" fill="#A16207"/>
  <text x="50" y="42" text-anchor="middle" fill="#92400E" font-size="8" font-weight="bold">MADANG</text>
  <text x="50" y="52" text-anchor="middle" fill="#92400E" font-size="6">WILD</text>
  <text x="50" y="60" text-anchor="middle" fill="#92400E" font-size="6">HONEY</text>
  <path d="M35 65L45 70L55 65L65 70L60 75L45 72L30 75L35 65Z" fill="#F59E0B"/>
  <circle cx="38" cy="68" r="1.5" fill="#D97706"/>
  <circle cx="50" cy="69" r="1.5" fill="#D97706"/>
  <circle cx="62" cy="68" r="1.5" fill="#D97706"/>
  <path d="M42 35C42 34.4 42.4 34 43 34H47C47.6 34 48 34.4 48 35V37C48 37.6 47.6 38 47 38H43C42.4 38 42 37.6 42 37V35Z" fill="#D97706"/>
  <path d="M52 35C52 34.4 52.4 34 53 34H57C57.6 34 58 34.4 58 35V37C58 37.6 57.6 38 57 38H53C52.4 38 52 37.6 52 37V35Z" fill="#D97706"/>
</svg>