<svg width="100" height="100" viewBox="0 0 100 100" fill="none" xmlns="http://www.w3.org/2000/svg">
  <rect width="100" height="100" rx="8" fill="#F3F4F6"/>
  <ellipse cx="40" cy="40" rx="15" ry="10" fill="#F8FAFC" stroke="#E2E8F0" stroke-width="2"/>
  <ellipse cx="40" cy="40" rx="12" ry="8" fill="#FFF7ED"/>
  <path d="M28 40L32 35L36 40L40 35L44 40L48 35L52 40" stroke="#F59E0B" stroke-width="1" fill="none"/>
  <ellipse cx="60" cy="35" rx="12" ry="8" fill="#F8FAFC" stroke="#E2E8F0" stroke-width="2"/>
  <ellipse cx="60" cy="35" rx="9" ry="6" fill="#FEF3C7"/>
  <path d="M51 35L54 31L57 35L60 31L63 35L66 31L69 35" stroke="#D97706" stroke-width="1" fill="none"/>
  <ellipse cx="30" cy="65" rx="10" ry="7" fill="#F8FAFC" stroke="#E2E8F0" stroke-width="2"/>
  <ellipse cx="30" cy="65" rx="7" ry="5" fill="#FEF3C7"/>
  <path d="M23 65L26 62L29 65L32 62L35 65L37 62" stroke="#F59E0B" stroke-width="1" fill="none"/>
  <ellipse cx="70" cy="65" rx="8" ry="6" fill="#F8FAFC" stroke="#E2E8F0" stroke-width="2"/>
  <ellipse cx="70" cy="65" rx="5" ry="4" fill="#FDF2F8"/>
  <path d="M65 65L67 62L70 65L73 62L75 65" stroke="#EC4899" stroke-width="1" fill="none"/>
  <circle cx="50" cy="60" r="3" fill="#DBEAFE"/>
  <circle cx="50" cy="60" r="2" fill="#BFDBFE"/>
</svg>