<svg width="100" height="100" viewBox="0 0 100 100" fill="none" xmlns="http://www.w3.org/2000/svg">
  <rect width="100" height="100" rx="8" fill="#F3F4F6"/>
  <rect x="20" y="25" width="60" height="50" rx="5" fill="#FEF3C7"/>
  <rect x="22" y="27" width="56" height="8" rx="2" fill="#92400E"/>
  <text x="50" y="33" text-anchor="middle" fill="#FEF3C7" font-size="6" font-weight="bold">SAGO FLOUR</text>
  <text x="50" y="45" text-anchor="middle" fill="#92400E" font-size="8" font-weight="bold">100% PURE</text>
  <text x="50" y="55" text-anchor="middle" fill="#A16207" font-size="6">WESTERN</text>
  <text x="50" y="62" text-anchor="middle" fill="#A16207" font-size="6">PROVINCE</text>
  <circle cx="30" cy="68" r="2" fill="#F59E0B"/>
  <circle cx="40" cy="66" r="2" fill="#F59E0B"/>
  <circle cx="50" cy="68" r="2" fill="#F59E0B"/>
  <circle cx="60" cy="66" r="2" fill="#F59E0B"/>
  <circle cx="70" cy="68" r="2" fill="#F59E0B"/>
  <circle cx="35" cy="71" r="1" fill="#D97706"/>
  <circle cx="45" cy="70" r="1" fill="#D97706"/>
  <circle cx="55" cy="71" r="1" fill="#D97706"/>
  <circle cx="65" cy="70" r="1" fill="#D97706"/>
  <path d="M25 20L30 25H70L75 20C75 18.9 74.1 18 73 18H27C25.9 18 25 18.9 25 20Z" fill="#D97706"/>
</svg>