<svg width="100" height="100" viewBox="0 0 100 100" fill="none" xmlns="http://www.w3.org/2000/svg">
  <rect width="100" height="100" rx="8" fill="#F3F4F6"/>
  <path d="M50 15C45 15 40 20 40 30V70C40 75 45 80 50 80C55 80 60 75 60 70V30C60 20 55 15 50 15Z" fill="#8B5CF6"/>
  <path d="M45 25C47 20 53 20 55 25C55 28 53 30 50 30C47 30 45 28 45 25Z" fill="#A78BFA"/>
  <circle cx="47" cy="26" r="1" fill="#1F2937"/>
  <circle cx="53" cy="26" r="1" fill="#1F2937"/>
  <path d="M48 28C48.5 29 51.5 29 52 28" stroke="#1F2937" stroke-width="1" stroke-linecap="round"/>
  <path d="M42 35L45 32L50 35L55 32L58 35C58 40 56 45 50 45C44 45 42 40 42 35Z" fill="#7C3AED"/>
  <rect x="45" y="50" width="10" height="8" rx="2" fill="#A78BFA"/>
  <rect x="45" y="60" width="10" height="8" rx="2" fill="#A78BFA"/>
  <path d="M35 40C32 42 32 48 35 50L40 45L35 40Z" fill="#6366F1"/>
  <path d="M65 40C68 42 68 48 65 50L60 45L65 40Z" fill="#6366F1"/>
  <path d="M46 72L50 75L54 72L50 69L46 72Z" fill="#8B5CF6"/>
</svg>