<svg width="100" height="100" viewBox="0 0 100 100" fill="none" xmlns="http://www.w3.org/2000/svg">
  <rect width="100" height="100" rx="8" fill="#F3F4F6"/>
  <rect x="25" y="25" width="40" height="55" rx="5" fill="#7C2D12"/>
  <rect x="27" y="27" width="36" height="12" rx="3" fill="#FBBF24"/>
  <text x="45" y="35" text-anchor="middle" fill="#7C2D12" font-size="7" font-weight="bold">SIGRI</text>
  <text x="45" y="45" text-anchor="middle" fill="#F59E0B" font-size="5">ESTATE</text>
  <text x="45" y="53" text-anchor="middle" fill="#F59E0B" font-size="5">PREMIUM</text>
  <text x="45" y="61" text-anchor="middle" fill="#F59E0B" font-size="5">ARABICA</text>
  <circle cx="35" cy="68" r="2.5" fill="#92400E"/>
  <circle cx="45" cy="70" r="2.5" fill="#92400E"/>
  <circle cx="55" cy="68" r="2.5" fill="#92400E"/>
  <circle cx="40" cy="74" r="2" fill="#A16207"/>
  <circle cx="50" cy="74" r="2" fill="#A16207"/>
  <path d="M30 15C30 13.9 30.9 13 32 13C33.1 13 34 13.9 34 15V20H30V15Z" fill="#D97706"/>
  <path d="M40 15C40 13.9 40.9 13 42 13C43.1 13 44 13.9 44 15V20H40V15Z" fill="#D97706"/>
  <path d="M50 15C50 13.9 50.9 13 52 13C53.1 13 54 13.9 54 15V20H50V15Z" fill="#D97706"/>
  <path d="M65 35V70C65 73.31 67.69 76 71 76H75C77.21 76 79 74.21 79 72V38C79 35.79 77.21 35 75 35H65Z" fill="#92400E"/>
  <rect x="67" y="40" width="8" height="4" rx="2" fill="#F59E0B"/>
</svg>