<svg width="100" height="100" viewBox="0 0 100 100" fill="none" xmlns="http://www.w3.org/2000/svg">
  <rect width="100" height="100" rx="8" fill="#F3F4F6"/>
  <rect x="15" y="15" width="70" height="70" rx="35" fill="#FBBF24"/>
  <rect x="20" y="20" width="60" height="60" rx="30" fill="#F59E0B"/>
  <ellipse cx="35" cy="35" rx="8" ry="4" fill="#D97706" transform="rotate(-20 35 35)"/>
  <ellipse cx="55" cy="40" rx="6" ry="3" fill="#D97706" transform="rotate(30 55 40)"/>
  <ellipse cx="40" cy="55" rx="7" ry="3.5" fill="#D97706" transform="rotate(-45 40 55)"/>
  <ellipse cx="65" cy="60" rx="5" ry="2.5" fill="#D97706" transform="rotate(15 65 60)"/>
  <ellipse cx="30" cy="65" rx="6" ry="3" fill="#D97706" transform="rotate(60 30 65)"/>
  <ellipse cx="60" cy="30" rx="4" ry="2" fill="#D97706"/>
  <text x="50" y="85" text-anchor="middle" fill="#92400E" font-size="8" font-weight="bold">TARO</text>
  <text x="50" y="93" text-anchor="middle" fill="#92400E" font-size="6">CHIPS</text>
  <circle cx="25" cy="25" r="2" fill="#FCD34D"/>
  <circle cx="75" cy="25" r="2" fill="#FCD34D"/>
  <circle cx="25" cy="75" r="2" fill="#FCD34D"/>
  <circle cx="75" cy="75" r="2" fill="#FCD34D"/>
</svg>