<svg width="64" height="64" viewBox="0 0 64 64" fill="none" xmlns="http://www.w3.org/2000/svg">
  <rect width="64" height="64" rx="8" fill="#7C3AED"/>
  <rect x="16" y="20" width="32" height="24" rx="2" fill="#8B5CF6"/>
  <rect x="18" y="22" width="28" height="16" rx="1" fill="#A78BFA"/>
  <circle cx="32" cy="30" r="4" fill="#7C3AED"/>
  <path d="M32 26V34M28 30H36" stroke="#A78BFA" stroke-width="2" stroke-linecap="round"/>
  <rect x="20" y="40" width="6" height="2" rx="1" fill="#7C3AED"/>
  <rect x="29" y="40" width="6" height="2" rx="1" fill="#7C3AED"/>
  <rect x="38" y="40" width="6" height="2" rx="1" fill="#7C3AED"/>
  <circle cx="24" cy="16" r="2" fill="#F59E0B"/>
  <circle cx="32" cy="16" r="2" fill="#F59E0B"/>
  <circle cx="40" cy="16" r="2" fill="#F59E0B"/>
  <path d="M12 48L16 44L20 48" stroke="#8B5CF6" stroke-width="2" stroke-linecap="round" stroke-linejoin="round"/>
  <path d="M44 48L48 44L52 48" stroke="#8B5CF6" stroke-width="2" stroke-linecap="round" stroke-linejoin="round"/>
</svg>