<svg width="64" height="64" viewBox="0 0 64 64" fill="none" xmlns="http://www.w3.org/2000/svg">
  <rect width="64" height="64" rx="8" fill="#2563EB"/>
  <rect x="24" y="16" width="16" height="32" rx="8" fill="#3B82F6"/>
  <rect x="26" y="18" width="12" height="6" rx="3" fill="#60A5FA"/>
  <circle cx="32" cy="28" r="1" fill="#1D4ED8"/>
  <circle cx="32" cy="32" r="1" fill="#1D4ED8"/>
  <circle cx="32" cy="36" r="1" fill="#1D4ED8"/>
  <path d="M28 42C28 43.1 28.9 44 30 44H34C35.1 44 36 43.1 36 42V40H28V42Z" fill="#1D4ED8"/>
  <path d="M30 12V16H34V12C34 10.9 33.1 10 32 10C30.9 10 30 10.9 30 12Z" fill="#60A5FA"/>
  <circle cx="20" cy="24" r="3" fill="#93C5FD"/>
  <circle cx="44" cy="24" r="3" fill="#93C5FD"/>
  <circle cx="20" cy="40" r="3" fill="#93C5FD"/>
  <circle cx="44" cy="40" r="3" fill="#93C5FD"/>
</svg>