<svg width="64" height="64" viewBox="0 0 64 64" fill="none" xmlns="http://www.w3.org/2000/svg">
  <rect width="64" height="64" rx="8" fill="#92400E"/>
  <path d="M16 20H44C46.21 20 48 21.79 48 24V36C48 38.21 46.21 40 44 40H42V42C42 45.31 39.31 48 36 48H28C24.69 48 22 45.31 22 42V40H20C17.79 40 16 38.21 16 36V24C16 21.79 17.79 20 20 20H16Z" fill="#D97706"/>
  <path d="M20 24V36H40V24H20Z" fill="#92400E"/>
  <circle cx="26" cy="30" r="2" fill="#F59E0B"/>
  <circle cx="30" cy="30" r="2" fill="#F59E0B"/>
  <circle cx="34" cy="30" r="2" fill="#F59E0B"/>
  <path d="M44 24V36H48C49.1 36 50 35.1 50 34V26C50 24.9 49.1 24 48 24H44Z" fill="#B45309"/>
  <path d="M24 14C24 12.9 24.9 12 26 12C27.1 12 28 12.9 28 14V16H24V14Z" fill="#D97706"/>
  <path d="M30 14C30 12.9 30.9 12 32 12C33.1 12 34 12.9 34 14V16H30V14Z" fill="#D97706"/>
  <path d="M36 14C36 12.9 36.9 12 38 12C39.1 12 40 12.9 40 14V16H36V14Z" fill="#D97706"/>
</svg>