<svg width="64" height="64" viewBox="0 0 64 64" fill="none" xmlns="http://www.w3.org/2000/svg">
  <rect width="64" height="64" rx="8" fill="#F59E0B"/>
  <path d="M32 12C34.21 12 36 13.79 36 16V20H28V16C28 13.79 29.79 12 32 12Z" fill="#8B5CF6"/>
  <path d="M26 20V22C26 24.21 27.79 26 30 26H34C36.21 26 38 24.21 38 22V20H42C44.21 20 46 21.79 46 24V44C46 46.21 44.21 48 42 48H22C19.79 48 18 46.21 18 44V24C18 21.79 19.79 20 22 20H26Z" fill="#6366F1"/>
  <circle cx="25" cy="35" r="3" fill="#F59E0B"/>
  <circle cx="39" cy="35" r="3" fill="#F59E0B"/>
  <path d="M30 40H34C35.1 40 36 40.9 36 42C36 43.1 35.1 44 34 44H30C28.9 44 28 43.1 28 42C28 40.9 28.9 40 30 40Z" fill="#8B5CF6"/>
</svg>